<svg id="ApawlloIIIPatch" xmlns="http://www.w3.org/2000/svg" xmlns:xlink="http://www.w3.org/1999/xlink" viewBox="0 0 800.91 1000.8"><defs><style>.cls-1{fill:none;}.cls-2{fill:#1c2b57;stroke:#231f20;stroke-miterlimit:10;stroke-width:5px;}.cls-3{fill:#fff;}.cls-4{fill:#ffc910;}.cls-5{fill:#070022;}.cls-6{clip-path:url(#clip-path);}.cls-7{fill:#3b469d;}.cls-8{fill:#283c8f;}.cls-9{fill:#6c744c;}.cls-10{fill:#707853;}.cls-11{fill:#5a6343;}.cls-12{fill:#f99d1c;}.cls-13{fill:#ffe89c;}.cls-14{fill:#ffcb51;}.cls-15{fill:#b9c4b0;}.cls-16{fill:#f89820;}.cls-17{fill:#672d25;}.cls-18{fill:#968f8a;}.cls-19{fill:#4b1c14;}.cls-20{fill:#5d5a57;}.cls-21{fill:#d7d8d9;}.cls-22{fill:#707274;}.cls-23{fill:#b2b3b5;}.cls-24{fill:#f2f2f2;}.cls-25{fill:#c7c9ca;}.cls-26{fill:#010101;}.cls-27{fill:#dfe0e0;}.cls-28{fill:#e9e9e9;}.cls-29{fill:#231f20;}.cls-30{fill:#b9babc;}.cls-31{fill:#bdbec0;}.cls-32{fill:#595a5c;}.cls-33{fill:#9d9fa2;}.cls-34{fill:#dcddde;}</style><clipPath id="clip-path" transform="translate(-7.5 -7.5)"><circle id="InkyBlackness" class="cls-1" cx="400" cy="400" r="255.77"/></clipPath></defs><g id="PatchBG"><circle id="Body" class="cls-2" cx="392.5" cy="392.5" r="390"/><g id="Stars"><polygon class="cls-3" points="64.27 344.19 78.47 372.96 110.22 377.57 87.24 399.96 92.66 431.59 64.27 416.66 35.87 431.59 41.29 399.96 18.32 377.57 50.07 372.96 64.27 344.19"/><polygon class="cls-3" points="718.42 344.19 732.62 372.96 764.37 377.57 741.4 399.96 746.82 431.59 718.42 416.66 690.03 431.59 695.45 399.96 672.48 377.57 704.23 372.96 718.42 344.19"/></g><path class="cls-4" d="M237.58,642c-2.44,3.75-8.35,4.9-13.77,1q-5.24-3.72-10.34-7.68L230.84,613q3.42,2.64,6.9,5.18c4.23,3.08,5.49,7.94,3.41,11-1.72,2.56-5.11,3-6.48,2C238.1,633.56,239.91,638.4,237.58,642Zm-5.79-24.38-5.17,6.84c1.45,1.1,2.92,2.19,4.39,3.26,2.88,2.11,5.76,1.81,7.12-.15s.38-5-2.06-6.78C234.63,619.72,233.21,618.66,231.79,617.59Zm2.83,22.15c1.48-2.21.34-5.74-3.22-8.26q-3.27-2.34-6.5-4.77-3.22,4.24-6.43,8.51c2.28,1.72,4.57,3.41,6.89,5.06C228.56,642.56,232.79,642.47,234.62,639.74Z" transform="translate(-7.5 -7.5)"/><path class="cls-4" d="M253.33,632.42,248.61,640q5.67,3.53,11.47,6.77l-1.56,2.79q-5.86-3.29-11.6-6.84l-5.19,8.36q6.84,4.26,13.85,8.11L254.05,662q-8.76-4.83-17.28-10.26L252,627.87q7.73,4.93,15.69,9.32l-1.51,2.75Q259.68,636.37,253.33,632.42Z" transform="translate(-7.5 -7.5)"/><path class="cls-4" d="M270.15,638.52q1.64.88,3.3,1.74-1.81,10.72-3.15,21.6,7.68-6.48,14.94-13.27l.24.11q-.39,9.93-.32,20,7.33-8.13,14.23-16.52l3.46,1.34q-9.51,11.64-19.86,22.75l-.54-.23q-.37-10.35-.21-20.62-7.64,6.84-15.72,13.34l-.51-.26Q267.62,653.36,270.15,638.52Z" transform="translate(-7.5 -7.5)"/><path class="cls-4" d="M327.44,661.6q-3.82,13.65-7.64,27.29c-1.2-.33-2.4-.68-3.6-1q1.77-6,3.55-12.09-7.78-2.28-15.46-5-2.12,5.94-4.21,11.88l-3.55-1.28q4.88-13.3,9.77-26.6l3.23,1.16-4.19,11.85q7.59,2.69,15.3,4.94,1.75-6,3.53-12.06Z" transform="translate(-7.5 -7.5)"/><path class="cls-4" d="M333.61,663.25c1.1.29,2.2.56,3.31.83l-6.69,27.54-3.64-.91Z" transform="translate(-7.5 -7.5)"/><path class="cls-4" d="M336.13,687.8l3.15-1.16c.92,2.68,3.9,5,7.33,5.6,4.24.8,8-.63,8.46-3.39.5-3.14-3.78-5.38-7.49-7.5s-7.44-4.65-6.48-8.92,5.74-6.51,10.91-5.56c4.38.81,7,3.54,7.72,6.48l-2.83,1.19a6.9,6.9,0,0,0-5.5-4.58c-3.21-.59-6.35.79-6.88,3.27-.56,2.68,2.59,4.37,6.34,6.48,4.33,2.54,8.5,5.14,7.84,9.65-.69,4.83-6.4,7.23-12.7,6C340.61,694.39,337,691.09,336.13,687.8Z" transform="translate(-7.5 -7.5)"/><path class="cls-4" d="M366.16,669.55l3.37.43q-1.71,14.07-3.41,28.13l-3.71-.47ZM368.3,684q7-6.25,13.37-12.83l4,.28q-6.27,6.59-13.11,12.89,5.91,7.85,12.49,15.46c-1.53-.09-3-.19-4.58-.31Q374,691.88,368.3,684Z" transform="translate(-7.5 -7.5)"/><path class="cls-4" d="M393.47,675c-.1,3-.21,6-.31,9q6.43.22,12.89.16c0,1.07,0,2.14,0,3.2q-6.51.06-13-.16-.18,4.9-.34,9.83,7.76.27,15.53.15c0,1.06,0,2.12.05,3.18q-9.72.15-19.42-.3l1.32-28.3q8.82.4,17.65.27c0,1,0,2.1.05,3.14Q400.67,675.24,393.47,675Z" transform="translate(-7.5 -7.5)"/><path class="cls-4" d="M433.34,698.9q-5.14-5.05-9.95-10.28-3,.21-5.95.34c.18,3.68.35,7.37.52,11-1.24.06-2.48.11-3.73.15q-.51-14.16-1-28.32,4.44-.15,8.86-.45c5.53-.36,10.47,3.17,11,8.14.38,3.65-2.08,7.1-5.87,8.44q5.17,5.32,10.7,10.45Q435.64,698.68,433.34,698.9Zm-10.17-13c3.77-.25,6.63-3.09,6.34-6.14-.31-3.25-3.54-5.49-7.1-5.26-1.89.13-3.77.23-5.65.32l.54,11.4C419.25,686.17,421.21,686.07,423.17,685.94Z" transform="translate(-7.5 -7.5)"/><path class="cls-4" d="M442,672.53c.41,3,.81,5.92,1.22,8.88q6.39-.87,12.76-2l.57,3.15q-6.42,1.17-12.9,2.05.68,4.88,1.34,9.75,7.71-1.05,15.37-2.5c.2,1,.4,2.09.59,3.13q-9.57,1.8-19.23,3l-3.51-28.12q8.76-1.1,17.47-2.73c.2,1,.39,2.06.59,3.09Q449.19,671.55,442,672.53Z" transform="translate(-7.5 -7.5)"/><path class="cls-4" d="M488.19,673.79c2.55,8.25-2.2,15.53-12.34,18q-4.5,1.08-9,2-2.9-13.87-5.8-27.74,4.11-.87,8.2-1.86C478.3,662,485.63,665.48,488.19,673.79Zm-3.46,1c-1.89-6.44-7.64-9.23-14.78-7.51q-2.46.59-4.92,1.13l4.77,21.46q2.67-.6,5.34-1.24C482.89,686.78,486.6,681.19,484.73,674.81Z" transform="translate(-7.5 -7.5)"/><path class="cls-4" d="M529.37,670.09c.44,1,.88,1.95,1.31,2.92q-11.48,5.18-23.25,9.37l-.29-.81c11-14,13.61-20.76,12.17-24.23s-5.64-4.67-9.28-3.2c-4,1.64-6.12,5.64-4.7,9.51l-3.28.51c-1.84-5.21,1.13-10.7,6.67-12.94s11.64-.19,13.8,4.55c2.05,4.54-.83,11.73-8.76,20.85Q521.64,673.58,529.37,670.09Z" transform="translate(-7.5 -7.5)"/><path class="cls-4" d="M528,658.68c-3.53-7.74-1.47-15.26,5-18.62s13.82-.73,18.12,6.61,2.46,15.36-4.76,19.12S531.46,666.38,528,658.68Zm19.91-10.19c-3.26-5.76-8.73-8-13.46-5.56s-6,8.21-3.16,14.19,8.39,8.49,13.55,5.81S551.11,654.21,547.86,648.49Z" transform="translate(-7.5 -7.5)"/><path class="cls-4" d="M580.91,640.52l1.85,2.61q-10.53,7.49-21.52,14l-.44-.74c8.43-16,9.78-23.26,7.7-26.38s-6.51-3.44-9.87-1.24c-3.74,2.44-5.07,6.8-2.94,10.32-1.06.4-2.12.79-3.19,1.17-2.8-4.76-.85-10.76,4.28-14.11s11.6-2.58,14.64,1.65c2.89,4.06,1.32,11.77-4.91,22.37Q573.82,645.57,580.91,640.52Z" transform="translate(-7.5 -7.5)"/><path class="cls-4" d="M575.78,612.81l17.47,22.53c-1,.8-2.07,1.6-3.12,2.39l-14.72-19.48q-1.6,2.07-3.24,4.11l-2-2.7c1.62-2,3.2-4.12,4.76-6.22Z" transform="translate(-7.5 -7.5)"/><path class="cls-3" d="M64.91,550.82a26.62,26.62,0,0,0,2.37,8.54l-3.47.79a27.27,27.27,0,0,1-2.64-12.86,35.58,35.58,0,0,1-6.27-10.38c-5.38-13.51-2.15-27.43,6.31-30S80,512.63,84.9,524.78s2.89,24.87-5.1,28.91C75.39,555.85,69.9,554.7,64.91,550.82Zm-6.68-15.26a28.7,28.7,0,0,0,3.67,6.61c1.33-5.77,3.55-10.3,1.3-16.63l3.09-.62c3.18,9-.23,13.79-1.24,20.68,4.07,3.61,8.72,4.89,12.46,3.12,6.26-3,7.88-13,4.06-22.63S69.63,510.11,63,512.3,54.09,525.14,58.23,535.56Z" transform="translate(-7.5 -7.5)"/><path class="cls-3" d="M79.77,561.61l17.15-8.81c.76,1.54,1.54,3.07,2.32,4.59l-17,9.05c-4.69,2.46-5.67,9-2.17,15.3s9.52,8.65,14,5.84l16.38-10.17q1.29,2.15,2.61,4.27L96.81,592.1c-6.16,4-14.76.55-19.86-8.57S73.21,564.9,79.77,561.61Z" transform="translate(-7.5 -7.5)"/><path class="cls-3" d="M103.4,595.92c7.5-4.89,19-.39,26.25,9.21s8.13,21.81,1.44,27.79-19.17,2.68-27.22-8.07S96,600.76,103.4,595.92ZM127.84,629c5.27-4.56,4.64-14.13-1.06-21.75s-14.73-10.92-20.49-7-5.73,14.17.44,22.39S122.59,633.57,127.84,629Z" transform="translate(-7.5 -7.5)"/><path class="cls-3" d="M159.92,662.66c-6.41,7.17-17.28,5.81-27.22-4.5q-4.41-4.59-8.69-9.37l23.41-21.25q3.93,4.37,8,8.57C164.38,645.44,166.4,655.41,159.92,662.66Zm-3.61-3.35c5.08-5.51,3.58-13.41-3.48-20.74q-2.42-2.52-4.79-5.1L130.11,650.2q2.56,2.79,5.19,5.51C142.9,663.6,151.29,664.76,156.31,659.31Z" transform="translate(-7.5 -7.5)"/><path class="cls-3" d="M193.8,702.74q-9.92-6.68-19.43-14.06c-1.92.71-3.84,1.4-5.78,2.08q-2.15-1.69-4.26-3.43,18.19-5.88,35.3-13.35l.41.3q-1.8,18.51-1.9,37.52c-1.52-1-3-2-4.56-3C193.64,706.8,193.71,704.76,193.8,702.74Zm.18-3.62q.5-9.51,1.43-18.87-8.67,3.78-17.61,7.16Q185.75,693.52,194,699.12Z" transform="translate(-7.5 -7.5)"/><path class="cls-3" d="M205.46,701.91q5.25-8.13,10.48-16.26,1.94,1.23,3.9,2.44-5.13,8.19-10.24,16.38c-2.84,4.49-.83,10.3,4.8,13.53s11.7,2,14.21-2.62l9.23-17q2,1.08,4,2.13l-9,17.09c-3.39,6.54-12.1,8.18-20.3,3.48S201.43,708.07,205.46,701.91Z" transform="translate(-7.5 -7.5)"/><path class="cls-3" d="M270.53,717.47q-5.46-2.18-10.84-4.53l-11.52,25.57q-2.26-1-4.52-2,5.92-12.72,11.86-25.43-5.37-2.45-10.67-5.08l1.6-3.14q12.5,6.21,25.43,11.36C271.42,715.3,271,716.38,270.53,717.47Z" transform="translate(-7.5 -7.5)"/><path class="cls-3" d="M280,721.06q-1.77,4.68-3.52,9.34,8,2.94,16.2,5.49c-.37,1.12-.73,2.25-1.1,3.38q-8.24-2.57-16.36-5.53L271.34,744q9.66,3.53,19.48,6.51c-.36,1.12-.71,2.25-1.07,3.37q-12.27-3.72-24.28-8.29L277,716.2q11,4.18,22.24,7.6l-1.05,3.34Q289,724.35,280,721.06Z" transform="translate(-7.5 -7.5)"/><path class="cls-3" d="M344.36,733.73q-2.73,15.81-5.45,31.63c-1.61-.27-3.23-.55-4.84-.84l3.9-21q-9.51,8.89-19.85,17.29h-.05q-5.64-12-10.32-24-2.87,10.32-5.74,20.65c-1.59-.43-3.17-.86-4.75-1.31q4.5-15.41,9-30.83l.5.14q5.67,14.61,12.8,29.06,12.78-10,24.3-20.8Z" transform="translate(-7.5 -7.5)"/><path class="cls-3" d="M394.13,760.87c-.08,5-5.64,9.53-14,9.06q-8-.46-16.07-1.26,1.62-15.66,3.23-31.32,5.42.54,10.85.9c6.61.45,11.27,4.3,11.13,8.45-.11,3.41-3.47,5.77-5.59,5.66C389,752.63,394.21,756.12,394.13,760.87ZM371.46,741.2c-.29,3.17-.57,6.33-.85,9.5,2.28.2,4.57.37,6.85.53,4.49.32,7.37-1.66,7.49-4.31s-3-4.94-6.79-5.2C375.93,741.57,373.69,741.4,371.46,741.2Zm18,19.3c.09-3-3.52-5.61-9-5.91q-5.07-.3-10.13-.74-.52,5.91-1.06,11.81,5.34.47,10.7.77C384.89,766.72,389.34,764.15,389.46,760.5Z" transform="translate(-7.5 -7.5)"/><path class="cls-3" d="M397.79,754.81c.21-8.93,9.53-16,20.65-16.53s21.1,5.75,22.14,14.63-8.22,17.14-20.66,17.68S397.57,763.67,397.79,754.81Zm38-1.47c-.7-6.9-8.44-11.87-17.25-11.49s-16,6-16,13,7.67,12.6,17.2,12.17S436.54,760.22,435.84,753.34Z" transform="translate(-7.5 -7.5)"/><path class="cls-3" d="M445,752.44c-.95-8.89,7.36-17.09,18.34-19s21.71,3,23.91,11.69-5.92,18-18.2,20.16S445.9,761.25,445,752.44Zm37.6-6.27c-1.61-6.76-9.95-10.7-18.65-9.21s-15.07,8-14.22,14.89,9.27,11.53,18.68,9.9S484.15,752.9,482.55,746.17Z" transform="translate(-7.5 -7.5)"/><path class="cls-3" d="M489.62,728.31q6.13-1.54,12.22-3.32c7.39-2.14,14.89.13,16.76,5.41,1.8,5.05-3.11,11.34-11,13.64q-4.14,1.2-8.31,2.31,1.55,5.61,3.1,11.22l-4.77,1.24Q493.62,743.56,489.62,728.31Zm24.55,3.51c-1.16-3.46-6.23-4.94-11.31-3.46-2.64.77-5.28,1.51-7.94,2.21L498.34,743c2.76-.73,5.5-1.48,8.24-2.27C511.89,739.16,515.28,735.09,514.17,731.82Z" transform="translate(-7.5 -7.5)"/><path class="cls-3" d="M541.81,738.69c.9-1.08,1.8-2.17,2.69-3.26,2.84,1.77,7.67,1.73,11.89-.14,5.22-2.3,8.43-6.32,7.05-9.11-1.56-3.18-7.8-2.11-13.35-1.37-5.35.71-11.39,1.08-13.23-3.44s1.94-9.88,8.35-12.73c5.42-2.41,10.2-1.88,13,.24q-1.15,1.57-2.34,3.12c-2.24-1.56-5.88-1.62-9.21-.15-4,1.77-6.52,5.24-5.42,7.83,1.2,2.81,5.84,2.11,11.41,1.32,6.52-.82,12.89-1.52,15.19,3,2.49,4.85-2.2,11.15-9.95,14.57C551.23,741.49,545,741.06,541.81,738.69Z" transform="translate(-7.5 -7.5)"/><path class="cls-3" d="M590.85,684.46q8.79,13.47,17.59,26.95l-.21.13a324.63,324.63,0,0,1-37.61-5.82l11.26,20.75c-1.47.77-2.93,1.54-4.41,2.3l-14.94-28.44.22-.11a319.34,319.34,0,0,0,36.88,6.65l-12.65-20Z" transform="translate(-7.5 -7.5)"/><path class="cls-3" d="M605.16,694.08c-5-7.48-1.23-18.7,7.83-25.69s21-7.83,27-1.15,2.94,19.1-7.2,26.89S610.07,701.49,605.16,694.08Zm31.13-23.63c-4.57-5.27-13.94-4.71-21.13.8s-9.95,14.33-6,20.08,13.7,5.91,21.46-.06S640.84,675.69,636.29,670.45Z" transform="translate(-7.5 -7.5)"/><path class="cls-3" d="M643.43,664.21c-5.92-6.75-3.65-18.52,4.49-26.91s20-11.12,26.86-5.32,5.41,18.76-3.72,28.12S649.3,670.9,643.43,664.21Zm28-28.42c-5.25-4.59-14.53-2.58-21,4.05s-8.07,15.85-3.39,21,14.44,3.89,21.42-3.29S676.68,640.35,671.46,635.79Z" transform="translate(-7.5 -7.5)"/><path class="cls-3" d="M684.77,599q-3.64,5.19-7.44,10.19l22.17,17.21c-1.06,1.4-2.14,2.8-3.22,4.18l-21.93-17.51q-3.89,4.95-7.9,9.71l-2.68-2.3q9.5-11.24,18.14-23.54Z" transform="translate(-7.5 -7.5)"/><path class="cls-3" d="M725.06,554.11c8.65,4.12,10,15.91,2.59,29.26q-3.31,5.93-6.81,11.66L694.09,578.3c2.12-3.51,4.2-7.07,6.21-10.69C707,555.54,716.32,549.92,725.06,554.11ZM722.7,559c-6.68-3.34-14.05.94-19.34,10.42-1.21,2.17-2.44,4.31-3.69,6.44L720.6,588.5q2-3.45,4-7C730.28,571.33,729.31,562.27,722.7,559Z" transform="translate(-7.5 -7.5)"/><path class="cls-3" d="M719.26,537.25l9.1,4.06q3.95-9.06,7.49-18.52l3.32,1.26q-3.58,9.56-7.56,18.71l10,4.46q4.74-10.89,8.92-22.32l3.31,1.23q-5.22,14.28-11.31,27.73L714,540.59q5.56-12.32,10.36-25.4l3.28,1.22Q723.68,527.08,719.26,537.25Z" transform="translate(-7.5 -7.5)"/><path class="cls-3" d="M727.15,507.14c.58-1.71,1.15-3.42,1.71-5.15l29.95,9.73c-.62,1.88-1.24,3.76-1.87,5.62Z" transform="translate(-7.5 -7.5)"/><path class="cls-3" d="M124.48,272.26q-3.8,7.14-7.3,14.59a423.71,423.71,0,0,1-32.76-53.64,14.24,14.24,0,0,1-1.23-9.78,36,36,0,0,1,5.39-11.78,34.45,34.45,0,0,1,8.51-9.37,13.07,13.07,0,0,1,9.24-2.4,379.59,379.59,0,0,1,60.07,11.54q-5,5.72-9.83,11.75a376.09,376.09,0,0,0-54.74-8c-1.6-.09-3,.8-4.27,2.67S96,221.42,96.7,223A422.68,422.68,0,0,0,124.48,272.26Z" transform="translate(-7.5 -7.5)"/><path class="cls-3" d="M164.63,128.92A44.16,44.16,0,0,1,175.89,122a26.06,26.06,0,0,1,9.55-2.1,15,15,0,0,1,7.51,1.83,15.49,15.49,0,0,1,5.27,4.8,17.81,17.81,0,0,1,2.72,6.46,16.7,16.7,0,0,1-.25,7.67,26.79,26.79,0,0,1-4,8.43,42.64,42.64,0,0,1-8.54,8.85q-9.87,8-19.22,16.93-1.51,1.44-.45,2.55l15.21,15.91q-4.86,4.68-9.54,9.62-8.7-8.32-17.38-16.67c-2.47-2.37-3.53-4.83-3.14-7.41s2.26-5.56,5.66-8.87q11-10.74,22.83-20.29a18.56,18.56,0,0,0,3.75-3.91,11,11,0,0,0,1.71-3.72,8,8,0,0,0,0-3.38,7.3,7.3,0,0,0-1.32-2.9,7.11,7.11,0,0,0-5.76-2.82c-2.51-.08-5.43,1.17-8.68,3.8a352.22,352.22,0,0,0-34,31.5l-7.68-7.37A362.63,362.63,0,0,1,164.63,128.92Z" transform="translate(-7.5 -7.5)"/><path class="cls-3" d="M232.75,154.88q-6.1,3.84-12.06,8a418.28,418.28,0,0,1-5-60.92,13,13,0,0,1,3.08-8.73,30.12,30.12,0,0,1,9.47-7,29.77,29.77,0,0,1,11.1-3.49,12.6,12.6,0,0,1,8.76,2.67,420.12,420.12,0,0,1,45.58,39.94q-6.75,2.4-13.39,5.11a418.22,418.22,0,0,0-42.46-34.52c-1.31-.89-2.88-.88-4.71,0a4.62,4.62,0,0,0-2.89,3.84A417.91,417.91,0,0,0,232.75,154.88Z" transform="translate(-7.5 -7.5)"/><path class="cls-3" d="M283.24,64.67A435,435,0,0,1,320.56,105a4.34,4.34,0,0,0,4.65,1.47,4.22,4.22,0,0,0,2.52-1.55,3.09,3.09,0,0,0,.54-2.66q-4-17.52-8-35a11.23,11.23,0,0,1,2.54-10.35c2.6-3,7.14-5.19,13.56-6.27,5.81-1,10.44-.62,13.78,1a19.33,19.33,0,0,1,8.12,7.3,425.54,425.54,0,0,1,22.91,37,4.2,4.2,0,0,0,4.28,2.3A4,4,0,0,0,388.2,97a3.16,3.16,0,0,0,1-2.51l-1.68-48q7.71-.27,15.42-.22-.15,24.26-.31,48.51a12.51,12.51,0,0,1-4.16,9.68c-2.72,2.45-6.74,3.71-12.13,4-4.9.22-8.68-.51-11.42-2.31A21.23,21.23,0,0,1,368,98.43a426,426,0,0,0-24.33-36,4.81,4.81,0,0,0-2.1-1.58,5.65,5.65,0,0,0-3-.24,4.77,4.77,0,0,0-2.89,1.46,3.08,3.08,0,0,0-.72,2.74L341.44,100a12.45,12.45,0,0,1-2.28,10.27c-2.22,2.91-5.94,4.89-11.21,6.12-4.79,1.12-8.65,1.1-11.7-.16A21.39,21.39,0,0,1,308,110a432.26,432.26,0,0,0-40.32-39.94Q275.43,67.19,283.24,64.67Z" transform="translate(-7.5 -7.5)"/><path class="cls-3" d="M436.8,48,433,87.47a11.27,11.27,0,0,0,.35,4.15,7.69,7.69,0,0,0,2.2,3.57A14.15,14.15,0,0,0,440,97.91a31.33,31.33,0,0,0,7.3,1.77q14.56,2.07,28.93,5.44l-2.48,10.33q-14.25-3.35-28.73-5.36a49.59,49.59,0,0,1-12.18-3,25.13,25.13,0,0,1-8.09-5.08,17.07,17.07,0,0,1-4.4-6.92,22.85,22.85,0,0,1-1.05-8.49q1.11-19.86,2.23-39.72Q429.18,47.25,436.8,48Z" transform="translate(-7.5 -7.5)"/><path class="cls-3" d="M513.57,63.3l-12,37.88a11.48,11.48,0,0,0-.52,4.13,7.65,7.65,0,0,0,1.43,4,14.22,14.22,0,0,0,3.88,3.6,32.3,32.3,0,0,0,6.82,3.25q13.92,5.06,27.39,11.41l-4.59,9.6q-13.37-6.31-27.21-11.3a50.57,50.57,0,0,1-11.36-5.5,25.59,25.59,0,0,1-6.9-6.65,17,17,0,0,1-2.88-7.68,22.85,22.85,0,0,1,.73-8.52q5.24-19.22,10.45-38.42Q506.24,61,513.57,63.3Z" transform="translate(-7.5 -7.5)"/><path class="cls-3" d="M615.13,112.81c10.8,7.53,17.23,15.93,19.32,24.22s-.46,16.35-7.24,24.07-14.12,11.28-21.94,11.27-16-3.33-25-9.62q-4.21-2.94-8.5-5.72c-9.2-5.95-15.19-12.14-18-19.33s-2.16-15.3,2.46-24.43,11-14.61,19.38-15.85S594,98.86,605,106Q610.1,109.31,615.13,112.81Zm-16,2.1c-7.09-4.58-13.18-6.33-18-5.51s-8.92,4.39-12.35,10.53-4.33,11.3-2.92,15.65,5.31,8.41,11.67,12.53Q582,151,586.37,154c6.11,4.27,11.37,6.34,16,6s9.2-3.09,13.57-8.53,6.1-10.55,5-15.34-5-9.8-12-14.65Q604.15,118.14,599.17,114.91Z" transform="translate(-7.5 -7.5)"/><path class="cls-3" d="M696.58,191,648.49,228.2q-4.23-5.55-8.66-10.84L686.24,178Q691.54,184.34,696.58,191Z" transform="translate(-7.5 -7.5)"/><path class="cls-3" d="M719.25,224.25l-51.77,31.84q-3.74-6.16-7.68-12.06l50.28-34.18Q714.79,216.9,719.25,224.25Z" transform="translate(-7.5 -7.5)"/><path class="cls-3" d="M738.94,261l-55,25.86q-3.18-6.75-6.6-13.27l53.68-28.44Q735.15,252.91,738.94,261Z" transform="translate(-7.5 -7.5)"/></g><g id="Space"><circle id="InkyBlackness-3" data-name="InkyBlackness" class="cls-5" cx="392.5" cy="392.5" r="255.77"/><g id="Stars-2" data-name="Stars"><path class="cls-3" d="M293.38,280.25c3.22,0,3.23-5,0-5s-3.22,5,0,5Z" transform="translate(-7.5 -7.5)"/><path class="cls-3" d="M190.23,324.32c3.22,0,3.23-5,0-5s-3.22,5,0,5Z" transform="translate(-7.5 -7.5)"/><path class="cls-3" d="M504.49,424c3.22,0,3.22-5,0-5s-3.22,5,0,5Z" transform="translate(-7.5 -7.5)"/><path class="cls-3" d="M517.49,184.24c3.22,0,3.22-5,0-5s-3.22,5,0,5Z" transform="translate(-7.5 -7.5)"/><path class="cls-3" d="M335,303.5c3.21,0,3.22-5,0-5s-3.23,5,0,5Z" transform="translate(-7.5 -7.5)"/><path class="cls-3" d="M587.21,373c3.22,0,3.23-5,0-5s-3.22,5,0,5Z" transform="translate(-7.5 -7.5)"/><path class="cls-3" d="M322.7,496.52c3.22,0,3.22-5,0-5s-3.22,5,0,5Z" transform="translate(-7.5 -7.5)"/><path class="cls-3" d="M498.36,577.2c3.22,0,3.22-5,0-5s-3.22,5,0,5Z" transform="translate(-7.5 -7.5)"/><path class="cls-3" d="M573.94,509.8c3.21,0,3.22-5,0-5s-3.23,5,0,5Z" transform="translate(-7.5 -7.5)"/><path class="cls-3" d="M190.23,380.1c3.22,0,3.23-5,0-5s-3.22,5,0,5Z" transform="translate(-7.5 -7.5)"/><path class="cls-3" d="M271.64,593.54c3.22,0,3.22-5,0-5s-3.22,5,0,5Z" transform="translate(-7.5 -7.5)"/><path class="cls-3" d="M433,469c3.22,0,3.22-5,0-5s-3.22,5,0,5Z" transform="translate(-7.5 -7.5)"/><path class="cls-3" d="M559.72,456.59c3.22,0,3.23-5,0-5s-3.22,5,0,5Z" transform="translate(-7.5 -7.5)"/><path class="cls-3" d="M592.32,312.69c3.22,0,3.22-5,0-5s-3.22,5,0,5Z" transform="translate(-7.5 -7.5)"/><path class="cls-3" d="M611.72,446.48c3.22,0,3.23-5,0-5s-3.22,5,0,5Z" transform="translate(-7.5 -7.5)"/><path class="cls-3" d="M438.11,393.37c3.21,0,3.22-5,0-5s-3.23,5,0,5Z" transform="translate(-7.5 -7.5)"/><path class="cls-3" d="M627.68,399c3.22,0,3.22-5,0-5s-3.22,5,0,5Z" transform="translate(-7.5 -7.5)"/><path class="cls-3" d="M261.43,446.48c3.21,0,3.22-5,0-5s-3.23,5,0,5Z" transform="translate(-7.5 -7.5)"/><path class="cls-3" d="M264.49,334.14c3.22,0,3.22-5,0-5s-3.22,5,0,5Z" transform="translate(-7.5 -7.5)"/><path class="cls-3" d="M202.19,492.44c3.22,0,3.22-5,0-5s-3.22,5,0,5Z" transform="translate(-7.5 -7.5)"/><path class="cls-3" d="M394.19,588.44c3.22,0,3.22-5,0-5s-3.22,5,0,5Z" transform="translate(-7.5 -7.5)"/><path class="cls-3" d="M345.17,391.33c3.22,0,3.22-5,0-5s-3.22,5,0,5Z" transform="translate(-7.5 -7.5)"/><path class="cls-3" d="M485.09,253.46c3.21,0,3.22-5,0-5s-3.23,5,0,5Z" transform="translate(-7.5 -7.5)"/><circle id="Star" class="cls-3" cx="515.29" cy="248.44" r="6.26"/><circle id="Star-2" data-name="Star" class="cls-3" cx="386.69" cy="429.84" r="5.43"/><circle id="Star-3" data-name="Star" class="cls-3" cx="382.8" cy="278.2" r="6.96"/><circle id="Star-4" data-name="Star" class="cls-3" cx="244.6" cy="211.48" r="4.05"/><circle id="Star-5" data-name="Star" class="cls-3" cx="278.28" cy="389.28" r="5.44"/><circle id="Star-6" data-name="Star" class="cls-3" cx="233.13" cy="370.1" r="4.19"/><circle id="Star-7" data-name="Star" class="cls-3" cx="526.35" cy="366.52" r="3.58"/><circle id="Star-8" data-name="Star" class="cls-3" cx="449.96" cy="325.1" r="4.54"/><circle id="Star-9" data-name="Star" class="cls-3" cx="515.29" cy="198.98" r="4.54"/><circle id="Star-10" data-name="Star" class="cls-3" cx="573.06" cy="256.8" r="4.15"/><circle id="Star-11" data-name="Star" class="cls-3" cx="544.85" cy="308.5" r="5.81"/><circle id="Star-12" data-name="Star" class="cls-3" cx="244.6" cy="494.9" r="5.81"/><circle id="Star-13" data-name="Star" class="cls-3" cx="509.03" cy="511.93" r="6.26"/><circle id="Star-14" data-name="Star" class="cls-3" cx="170.48" cy="433.8" r="6.26"/><circle id="Star-15" data-name="Star" class="cls-3" cx="228.94" cy="260.95" r="5.34"/></g></g><g id="EarthAndMask"><g class="cls-6"><path id="Base" class="cls-7" d="M31,847.3c0-214.66,174-388.68,388.68-388.68s388.69,174,388.69,388.68S31,1062,31,847.3Z" transform="translate(-7.5 -7.5)"/><path id="WaterShadow" class="cls-8" d="M31,847.3a387,387,0,0,1,76.6-231.72C152.43,727.72,317.18,852.05,445,852.05c165.43,0,268.63-72.43,337.54-144.43A387.76,387.76,0,0,1,808.41,847.3C808.41,1062,31,1062,31,847.3Z" transform="translate(-7.5 -7.5)"/><path class="cls-9" d="M504.13,473.92c5.12,1.87,23.2,5.71,23.58,7.61s-4.19,1.9-3.81,3.42-3.42,2.28-2.66,4.18-3,3.8-1.14,4.56,3.42-.76,3.8-2.66,5-3,6.09-2.28,11-3,12.93,0,12.54,1.92,16.35,5.14,17.87,12,19.39,10.45,13.3,6.46,14.06,8.75,3.81,8.36,0,9.12a5.33,5.33,0,0,0-4.18,4.56s-2.28,3.05-3,0,0-7.6-3.42-8.74a10.55,10.55,0,0,0-6.85.38s-6.08.76-5.32,2.66-1.52,7.27.76,7.06,6.09-1.68,7.61,0,6.46,4.73,6.46,4.73,5.32,5.32,7.22,4.56,7.23,2.66,6.09,3.42-4.56.76-7.61,0-8.74-3-11-2.66-12.55,0-13.31-1.9.76-14.45-1.9-14.83-6.85,0-7.23,2.28-10.26.76-12.92.38-14.83-3-17.11-.38S518.2,531,517.82,534s4.94-4.18,7.61-4.57,11.78-3.8,12.92-1.52,4.19,3.81,3.42,5.33-1.9.76,3.05,3,11,6.08,14.83,5.13,6.84-2.55,6.84.15-9.51,6.13-11.79,7.27-3.8,4.94-5.32,4.18-4.18-1.9-3.8-3.8.38-4.19,1.52-5-6.09-.76-8.75,1.9-13.69,4.39-12.92,7-.77,5.6.76,6.74-7.23,3.42-11,4.95-7.22,6.84-7.61,8-1.9,5.32-.76,6.84-1.9,8.37-2.66,9.89-3.8,6.84-5.32,8-9.51,4.19-11,6.47-9.12,2.66-9.12,4.56-2.28,13.31,0,16.35,6.08,11,6.84,12.17,4.94,11.4,3.8,13.31,0,9.12-4.18,8-7-7.22-7.48-8.36-4.69-6.09-5.45-9.13-1.52-8.36-2.28-10.27-4.18-5.7-6.08-6.46a5.91,5.91,0,0,0-6.08,1.52c-1.14,1.52-4.57,3.8-5.33,2.66s-3.42-4.56-7.6-5.32-14.45,1.9-15.59,1.52-9.51-1.9-11.41-2.28a2.15,2.15,0,0,0-2.28,3c.76,1.14,1.9-.76,4.18.38s2.28,5.32,0,5.32-8.74,1.91-10.26.38-8-3-11.41-3.8-14.45,2.28-15.21,3.42-11,3-11,4.95-2.67,5.7-2.67,7.22-.76,6.85,0,8.37-2.28,6.84-3.42,8.74,4.18,4.18,3.8,5.32-2.6,1.53-4,4.57-2.06,8,0,8,4.72-2.28,5.87,0,3.42,10.65,4.56,11,6.84,8,6.84,8-.38,6.47,1.14,7.23,9.51.76,10.65,0,9.5-2.28,11.41-3,8-4.57,8-6.09.38-8,.38-9.88,2.66-5,5.32-3.81,8.37,0,10.65-.76,6.46-3,7.6-1.9,4.19,1.14,4.57,3.8-1.9,10.65-1.9,10.65l-3.05,11.6s-9.12,16.92-11,17.3,2.66,2.66,8,0,11,2.16,12.17,1.27,15.59.11,15.59.11,10.64-2,11.79,0,.38,10.4-.77,11.93,1.53,9.88,3.05,10.64.76,7.23-1.14,8.75-5.33,5.32-4.57,7.22,5.71,8.37,7.23,8.75,12.16,5.7,13.69,5.7,9.88,1.9,9.88,5.32,8,5.33,11.79,5,4.56,1.52,4.56,2.66.76,4.56-1.14,4.56-15.21-2.66-15.59-3.8-9.5-3-11.41-4.95-17.49-5.7-19.39-8.74-10.26-11-13.3-10.27-6.85-.76-5.33-3.8-1.14-8-3.42-9.5-9.51-3-10.65-4.19,3.81-4.94,3.43-6.84-3.43,3.42-5.71,2.66-20.15-5.32-20.53-7.22-3.42,1.9-4.94.38S392,726.39,390.07,723s-8.75-4.18-10.27-2.66-8,4.94-9.89,4.56-21.29-5.7-21.67-8-11-5.7-12.55-4.56-8,.38-8,.38-17.49-13.31-17.87-17.11-6.46-11.4-6.08-17.87-.38-14.83-3.43-16.35-7.6-3.8-9.12-4.18-8.37-6.46-9.51-8.37-8-8-8.36-10.64-3.42-11-2.66-12.93,2.41-6.08-.13-6.84-3.3,2.28-4.44,1.52-1.14-3.42-2.66-3.42-1.9,4.56,0,7.6,4.18,9.89,4.18,9.89,2.29,6.46.76,8.74.77,6.85,2.29,7.23,4.56,4.94,4.56,6.84,1.52,7.22,3.42,8.74,3.42,3.05,4.56,3.81-1.14,4.94-2.66,4.94-3-4.18-4.56-5.7-8-4.57-8.37-6.47,2.67-6.84.76-9.5-10.26-6.09-11-7.23,1.14-7.6,2.66-6.08,4.18-.76,4.18-.76-11-6.46-11-8.75,1.9-12.54,0-14.06-2.29-1.91-2.29-8-11-4.18-11.4-5.7-7.23-14.83-6.85-21.3,6.85-18.63,8.37-18.63,7.6-9.5,7.6-10.64,8.37-19.77,13.31-21.29,13.31-5.71,13.31-8,.76-8.36-1.52-10.27-6.85-2.66-6.09-5.32,3.05-6.08-.38-6.08-5.7-1.9-8.74-.38-6.85,2.66-8.37,1.9a9.54,9.54,0,0,1-2.91-3.17s92.27-48.16,192.65-39a208.22,208.22,0,0,1,31.17,5.33C483.22,463.66,494.45,470.38,504.13,473.92Z" transform="translate(-7.5 -7.5)"/><path class="cls-10" d="M454.7,680.38s4.95-.38,8-2.28,8.74-6.08,9.88-4.94,9.89,1.52,9.89,1.52,5.32,5.7,6.84,5.7,8,.38,9.89,2.28,6.46,6.09,8,6.09h7.61s-3,3.42-3.8,4.56,7.6,2.28,8.74,1.9,10.27,1.29,11.41.08,5.32-3.5,5.32-3.5-5.7-4.18-8.36-4.18-7.23-3.26-7.23-3.26-7.6-1.31-8-2.45-11-10.65-12.55-8.93-1.14,4.75-2.66,4.75-2.28-3.84-4.56-5a34.74,34.74,0,0,0-9.13-2.64H470.67c-1.9,0-6.46,2.66-6.46,2.66S456.22,677.34,454.7,680.38Z" transform="translate(-7.5 -7.5)"/><path class="cls-10" d="M541.39,695.74s1.53-5.85,3.81-4.33,3,2.57,5.32,4.33,6.08-3.68,7.22-2.29,5.33,1.24,7.23,2.64,8,.26,8.74,1.78,3,4.19,2.29,5.33-1.15,6.46-3.81,5.7-7.6-4.18-9.88-2.28-1.37,4.56-3.54,5.32-4.45-1.14-7.49-2.66-14.45-3.8-14.83-3.8,8.37-3,11.79-2.28S544.82,695.5,541.39,695.74Z" transform="translate(-7.5 -7.5)"/><path class="cls-10" d="M584.74,705.48s-2.28,4.18,0,4.56,10.27-.76,10.27-2.28S587.78,704.34,584.74,705.48Z" transform="translate(-7.5 -7.5)"/><path class="cls-10" d="M522.76,772c-3.08,2.4-9.88,7.6-8.36,9.5s2.66,19,2.28,23.58-4.56,24.33-6.46,25.85-12.55,10.27-12.55,14.83-6.08,8-6.08,9.89-2.29,3.8,0,6.46,4.18,5.32,6.08,4.56,4.94-2.28,6.46-1.9-10.26,9.89-11,12.17-3.93,5.7-2.54,8.36,1.78,11.41,5,12.17,7.41,8,7.41,10.27,13.31,22.43,14.45,25.09,11,17.49,10.27,19.77S530,964,532.27,965.55s18.77,11.79,24,12.17,9,18.42,6.76,20.43,138.78-22.74,184.42-59.23C764.7,925.14,762,911.42,763.06,899c.3-3.4-3.54-12.94-8.36-17.11-2.73-2.37-7.74,1.26-7.6-1.9.76-17.49-6.09-16-7.23-15.59-3.42,1.14-9.12-9.5-9.12-11s-6.09-9.5-10.27-9.88-9.13-10.27-10.27-11-5.7-1.14-9.12-5.32-4.94-14.45-8-16.35-12.54-4.56-13.68-7.6-16.73-3.05-17.49-1.91-7.61-1.9-8.75-5.32S642.53,777.34,641,778.1s-7.22-9.5-9.5-11.41-16-1.9-17.11,0-3.8,4.95-6.09,4.57-6.46-5.14-8.36-6-12.55.85-13.69,0-4.94-2.76-4.18-4.28-5.32-7.22-8-6.46-1.52-3-3.42-3-1.14,4.94-3.42,5.32-4.18,0-4.18-1.52,1.9-3.42-2.66-3.8-7.23,3.8-8.75,5.7-7.22,8-8.74,8S528.54,767.52,522.76,772Z" transform="translate(-7.5 -7.5)"/><path class="cls-11" d="M495.29,849.72c-2.18,3-3.7,5.37-3.7,5.95,0,1.9-2.29,3.8,0,6.46s4.18,5.32,6.08,4.56,4.94-2.28,6.46-1.9-10.26,9.89-11,12.17-3.93,5.7-2.54,8.36,1.78,11.41,5,12.17,7.41,8,7.41,10.27,13.31,22.43,14.45,25.09,11,17.49,10.27,19.77S530,964,532.27,965.55s18.77,11.79,24,12.17,9,18.42,6.76,20.43,138.78-22.74,184.42-59.23C764.7,925.14,762,911.42,763.06,899c.3-3.4-3.54-12.94-8.36-17.11-2.73-2.37-7.74,1.26-7.6-1.9.76-17.49-6.09-16-7.23-15.59-3.42,1.14-9.12-9.5-9.12-11s-6.09-9.5-10.27-9.88-9.13-10.27-10.27-11-5.7-1.14-9.12-5.32-4.94-14.45-8-16.35-12.54-4.56-13.68-7.6-16.73-3.05-17.49-1.91S584.17,843.5,495.29,849.72Z" transform="translate(-7.5 -7.5)"/></g></g><g id="SunAndMask"><g class="cls-6"><polygon class="cls-12" points="364.81 170.88 370.15 173.43 338.68 244.16 364.81 170.88"/><polygon class="cls-12" points="391.36 178.29 399.27 178.56 399.03 282.68 391.36 178.29"/><polygon class="cls-12" points="344.48 153.6 348.22 158.28 288.21 208.94 344.48 153.6"/><polygon class="cls-12" points="427.38 171.99 421.65 175.31 463.13 251.43 427.38 171.99"/><polygon class="cls-13" points="376.38 176.03 384.51 178.24 352.43 271.24 376.38 176.03"/><polygon class="cls-13" points="406.59 179.28 414.2 177.48 430.61 268.7 406.59 179.28"/><polygon class="cls-13" points="352.61 162.6 358.02 167.18 300.09 239.77 352.61 162.6"/><polygon class="cls-13" points="339.32 144.26 341.58 148.44 287.75 179.52 339.32 144.26"/><polygon class="cls-12" points="445.14 155.96 441.32 160.58 500.46 212.26 445.14 155.96"/><polygon class="cls-13" points="436.86 164.83 431.36 169.31 488.06 242.88 436.86 164.83"/><polygon class="cls-13" points="450.45 146.72 448.12 150.85 501.41 182.84 450.45 146.72"/><circle id="Body-2" data-name="Body" class="cls-14" cx="395.57" cy="114.42" r="57.16"/></g></g><g id="CurvedSmoke2"><path class="cls-15" d="M253.28,499.89c-3,1.16-22.85-34.91-29.51-32.55C0,546.62,276,668.6,488.87,591,299,598.7,242.57,561.43,235.94,546.36,233,539.73,238.76,524,253.28,499.89Z" transform="translate(-7.5 -7.5)"/></g><g id="CurvedFlames2"><path class="cls-16" d="M231,464.08s-37.19,16.53-42.55,21.26c3.83-1.15,5.36,0,5.36,0s-29.9,16.25-40.76,26.5c4.53-1.11,7.19-1.22,5.4.82-8.8,10-12.35,26.21-6.39,38.3.76,1.53,1.52-6.06,2.56-4.47,3.47,5.32,16.61,18.67,24.38,24.56.67.5-.71-4.18,0-3.67,7.46,5.39,21.93,12,33.88,17.56,1.05.49-1.95-3.58-.86-3.09,8.46,3.78,45.27,14.82,56.17,18.55.79.27-3.15-4.53-2.34-4.26,15.45,5.19,86.28,10.05,108.21,7.67-24.85-2-86.17-15.72-96.68-20.6-.88-.41,6.48-.1,5.62-.51-8-3.78-26.44-10.14-32.35-13.44-1.18-.66,4-.26,2.92-.9C242.62,562,229.41,553.65,224.88,549c-1.38-1.42,0-2.54,3.12-1.52-14.47-13.28,5.27-22.81,6.66-24.34a51.11,51.11,0,0,1-.95,6.51s15-22.23,19.57-29.75S244.45,462.6,231,464.08Z" transform="translate(-7.5 -7.5)"/><path class="cls-4" d="M227.64,473.18s-25.46,10.16-29.24,13.49c2.7-.8,6.64,2.42,6.64,2.42s-35.81,13-40.15,30.21c3.25-2.68,5.75-4.28,5.43-2.81-.84,3.83-14,24-9.87,28.47.55-2.81,2.68-5.13,3.68-4.47,5.74,3.83,13.9,17.16,18.15,21.37-.73-3.31.46-5.17,1.32-4.39,6.79,6.15,15.71,12.61,28.59,19.23.94.48-1-3.37,0-2.89,8.06,4,36.52,14.73,47.87,19,.75.28-2.27-2.66-1.52-2.38,5.91,2.19,50.13,6.18,56.55,8.25-4.22-1.84-47.55-15-51.54-16.93-.69-.34,3.19-.09,2.51-.43-6.32-3.19-24-8.3-28.6-11-1-.57,4.68.06,3.74-.51-14.89-9.08-26.27-20-30.38-26.84-.6-1,4.08,1.49,3.56.59-9.7-16.51,15.17-28.16,16.15-29.24,0,1.32-.34,4.94-.34,4.94s9.89-15.58,13.14-20.89S237.11,472.14,227.64,473.18Z" transform="translate(-7.5 -7.5)"/></g><g id="Rocket"><g id="Engine"><path class="cls-17" d="M253.28,499.89c-10.08,2.76-18.19-9-20.21-12.26s-9-15.73-2.07-23.55c12.07-7.51,37.58-9.49,37.58-9.49l9.82,15.78S265.35,492.38,253.28,499.89Z" transform="translate(-7.5 -7.5)"/><path class="cls-18" d="M274.6,476.37c-4-1-6.9-5.78-8.92-9s-5-7.95-4.16-12c5.38-2.31,7.06-.76,7.06-.76l9.82,15.78S279.05,472.56,274.6,476.37Z" transform="translate(-7.5 -7.5)"/></g><g id="EngineShadow"><path class="cls-19" d="M253.28,499.89c-10.08,2.76-18.19-9-20.21-12.26,20.6,5.3,45.33-17.26,45.33-17.26S265.35,492.38,253.28,499.89Z" transform="translate(-7.5 -7.5)"/><path class="cls-20" d="M274.6,476.37c-4-1-6.9-5.78-8.92-9,7.16,7.44,12.72,3,12.72,3S279.05,472.56,274.6,476.37Z" transform="translate(-7.5 -7.5)"/></g><path id="Base-2" data-name="Base" class="cls-21" d="M447.43,396.62,303.15,486.38s-12.45,3.76-29.66-23.9-8.31-37.14-8.31-37.14l144.28-89.76L477.18,308s97.6-61.75,103.67-64.49,40-10.36,43.78-10.58,9.62-1.4,12.55,3.31-.71,9.49-2.56,12.75-23.68,30.35-28.83,34.59-103.68,64.5-103.68,64.5Z" transform="translate(-7.5 -7.5)"/><path id="BaseShadow" class="cls-22" d="M447.43,396.62,303.15,486.38s-8.76,2.65-21.74-12.83l150-93.32,63.92-42L602,271.9s30.12-23.07,35.14-35.67c2.93,4.71-.71,9.49-2.56,12.75s-23.68,30.35-28.83,34.59-103.68,64.5-103.68,64.5Z" transform="translate(-7.5 -7.5)"/><path id="TopBody" class="cls-21" d="M447.22,396.76s-6.6.12-23.82-27.54-14.15-33.5-14.15-33.5L477.18,308S574,246.7,580.12,244s12,11.29,16,17.82,14.08,18,8.93,22.26-102.94,64-102.94,64Z" transform="translate(-7.5 -7.5)"/><path id="TopBodyShadow" class="cls-23" d="M447.22,396.76s-4.65.09-16.3-16.21c7.94-4.95,64.43-42.28,64.43-42.28l106.87-66.48c3.95,6.42,4.26,6.68,3.57,11.78-5.15,4.25-103.68,64.5-103.68,64.5Z" transform="translate(-7.5 -7.5)"/><path id="Nosecone" class="cls-24" d="M580.85,243.5c6.08-2.75,40-10.36,43.78-10.58s9.62-1.4,12.55,3.31-.71,9.49-2.56,12.75-23.68,30.35-28.83,34.59c-1.22-7.8-3.32-11.59-9.67-21.8S587,247.51,580.85,243.5Z" transform="translate(-7.5 -7.5)"/><path id="NoseconeShadow" class="cls-25" d="M637.18,236.23c2.93,4.71-.71,9.49-2.56,12.75s-23.68,30.35-28.83,34.59a35.86,35.86,0,0,0-3.73-11.68C610.85,262.09,626.75,252.88,637.18,236.23Z" transform="translate(-7.5 -7.5)"/><path id="NoseconeTip" class="cls-3" d="M624.63,232.92c3.75-.22,9.62-1.4,12.55,3.31s-.71,9.49-2.56,12.75Z" transform="translate(-7.5 -7.5)"/><path id="NoseconeTipShadow" class="cls-25" d="M637.18,236.23c2.93,4.71-.71,9.49-2.56,12.75l-3.09-5A31.75,31.75,0,0,0,637.18,236.23Z" transform="translate(-7.5 -7.5)"/><g id="Details"><rect class="cls-26" x="574.64" y="261.3" width="2.02" height="4.41" transform="translate(487.82 -371.97) rotate(58.11)"/><rect class="cls-26" x="585.05" y="278.03" width="2.02" height="4.41" transform="translate(506.94 -372.92) rotate(58.11)"/><g id="Layer_8" data-name="Layer 8"><polygon class="cls-27" points="445.85 363.38 453.38 372.97 445.57 380.03 437.16 369.43 445.85 363.38"/><polygon class="cls-3" points="427.71 334.21 422.43 323.22 412.65 327.1 418.44 339.33 427.71 334.21"/><rect class="cls-28" x="369.7" y="359.39" width="21.75" height="120.89" transform="matrix(0.53, 0.85, -0.85, 0.53, 528.53, -132.58)"/><rect id="Shadow" class="cls-23" x="321.21" y="412.76" width="120.89" height="17.64" transform="translate(-172.6 257.71) rotate(-31.89)"/><rect class="cls-28" x="348.05" y="324.6" width="21.75" height="120.89" transform="translate(488.77 -130.61) rotate(58.11)"/></g></g><g id="Stripes"><path class="cls-29" d="M322.34,432.11c5.37,8.62,22.36,28.42,28.53,24.58l-12.35,7.69s-14.25-.79-28.9-24.35-9.82-36.23-9.82-36.23l13.1-8.15S305.92,405.71,322.34,432.11Z" transform="translate(-7.5 -7.5)"/><path class="cls-29" d="M424.25,368.71c5.36,8.63,16.17,27,23.4,27.78l-6.49,4s-9.11-4-23.77-27.55-14.95-33-14.95-33l7.24-4.5S407.82,342.31,424.25,368.71Z" transform="translate(-7.5 -7.5)"/><path class="cls-29" d="M293,450.34c5.37,8.62,23.82,27.51,30,23.67l-19.68,12.24s-15.71.13-30.37-23.44-8.35-37.13-8.35-37.13L285.07,413S276.62,423.93,293,450.34Z" transform="translate(-7.5 -7.5)"/><path class="cls-30" d="M298.83,464c5.53,5.63,13.13,11.14,17.67,12.39L300,486.67c-3.32-.53-9.38-2.86-18-12.19Z" transform="translate(-7.5 -7.5)"/><path class="cls-3" d="M283.91,440c-2.61-7.44-4.2-16.7-3.3-21.32l-17.27,10.74c-1,3.21-1,10.1,3.45,21.23Z" transform="translate(-7.5 -7.5)"/><path class="cls-29" d="M506.56,289.71l6.55-4.07s8.11,10.53,13.59,19.34,11.48,21,11.48,21l-6.38,3.93s-6.07-12.67-11.29-21.06A229.7,229.7,0,0,0,506.56,289.71Z" transform="translate(-7.5 -7.5)"/><path class="cls-29" d="M477.18,308l2.88-1.79s5.91,11.89,11.39,20.71S505,346.3,505,346.3l-2.9,1.77s-8-11.23-13.18-19.62S477.18,308,477.18,308Z" transform="translate(-7.5 -7.5)"/><path class="cls-29" d="M543.71,266.61l14.61-9.09a174.74,174.74,0,0,1,14.32,18.88c5.48,8.81,10.75,21.42,10.75,21.42l-14.45,8.94s-5.33-13.13-10.55-21.52S543.71,266.61,543.71,266.61Z" transform="translate(-7.5 -7.5)"/><g id="Layer_6" data-name="Layer 6"><path class="cls-29" d="M633.39,250.79s-3.29-7-4.71-9.27-6.24-8.32-6.24-8.32l2.19-.28a51.06,51.06,0,0,1,10,16Z" transform="translate(-7.5 -7.5)"/></g></g><g id="BottomPanel"><rect class="cls-31" x="393" y="371.33" width="20.72" height="20.72" transform="translate(506.89 -169.93) rotate(58.11)"/><rect class="cls-32" x="393.61" y="371.93" width="19.51" height="19.51" transform="translate(506.89 -169.93) rotate(58.11)"/><rect class="cls-24" x="393.89" y="372.21" width="18.95" height="18.95" transform="translate(506.89 -169.93) rotate(58.11)"/></g><g id="MidPanel"><rect class="cls-29" x="554.26" y="271.01" width="20.72" height="20.72" transform="translate(497.79 -354.17) rotate(58.11)"/><rect class="cls-33" x="554.86" y="271.62" width="19.51" height="19.51" transform="translate(497.79 -354.17) rotate(58.11)"/><rect class="cls-3" x="555.14" y="271.9" width="18.95" height="18.95" transform="translate(497.79 -354.17) rotate(58.11)"/></g><g id="NosePanel"><rect class="cls-34" x="616.12" y="241.63" width="9.05" height="9.77" rx="1.08" transform="translate(494.63 -418.2) rotate(58.11)"/><rect class="cls-33" x="616.39" y="241.92" width="8.52" height="9.2" rx="0.98" transform="translate(494.63 -418.2) rotate(58.11)"/><rect class="cls-3" x="616.51" y="242.05" width="8.28" height="8.94" rx="1" transform="translate(494.63 -418.2) rotate(58.11)"/></g></g></svg>